<svg xmlns="http://www.w3.org/2000/svg" viewBox="0 0 32 32" role="img" aria-label="HieroForge logo">
  <defs>
    <linearGradient id="hf-g" x1="0" y1="0" x2="32" y2="32" gradientUnits="userSpaceOnUse">
      <stop stop-color="#38bdf8"/>
      <stop offset="1" stop-color="#818cf8"/>
    </linearGradient>
    <filter id="hf-soft" x="-20%" y="-20%" width="140%" height="140%">
      <feGaussianBlur stdDeviation="1.2" result="blur"/>
      <feColorMatrix in="blur" type="matrix" values="
        1 0 0 0 0
        0 1 0 0 0
        0 0 1 0 0
        0 0 0 .18 0"/>
      <feMerge>
        <feMergeNode/>
        <feMergeNode in="SourceGraphic"/>
      </feMerge>
    </filter>
  </defs>

  <!-- Background -->
  <rect x="0.75" y="0.75" width="30.5" height="30.5" rx="8"
    fill="url(#hf-g)" stroke="rgba(255,255,255,0.20)" filter="url(#hf-soft)"/>

  <!-- Small sparks -->
  <g fill="none" stroke="rgba(255,255,255,0.90)" stroke-linecap="round" stroke-width="1.6">
    <path d="M16 4.2l0 2.6"/>
    <path d="M12.4 6.1l1.2 2.2"/>
    <path d="M19.6 6.1l-1.2 2.2"/>
  </g>

  <!-- Stylized forge 'H' -->
  <g fill="white">
    <path d="M10.2 9.2h2.2v5h7.2v-5h2.2v13.6h-2.2v-7h-7.2v7h-2.2V9.2z"/>
    <!-- inner cut to make it feel more 'forged' -->
    <path d="M13.1 12.3h5.8c.2 0 .4.2.4.4v1.3c0 .2-.2.4-.4.4h-5.8c-.2 0-.4-.2-.4-.4v-1.3c0-.2.2-.4.4-.4z" opacity="0.22"/>
  </g>
</svg>

